<svg width="39" height="51" viewBox="0 0 39 51" fill="none" xmlns="http://www.w3.org/2000/svg">
<path d="M32.8603 0.131504C32.7871 0.211189 32.7175 0.342674 32.6845 0.478142C32.6516 0.597675 32.5893 0.832752 32.549 0.996113C32.5051 1.15947 32.3916 1.45432 32.2927 1.65353C32.1975 1.84877 32.073 2.15556 32.018 2.33088C31.9045 2.70541 31.5676 3.41463 31.2783 3.90072C30.8902 4.55017 30.4141 5.11197 29.711 5.74549C29.0738 6.32322 28.8358 6.73361 28.4879 7.85322L28.2938 8.4708L28.0045 8.74971C27.6932 9.04455 27.1037 9.47885 26.5068 9.85736C26.0563 10.1403 25.9831 10.2399 26.0051 10.5666C26.0234 10.9331 26.2358 11.3435 26.613 11.7579C26.8583 12.0249 26.9938 12.1324 27.2062 12.248C27.36 12.3277 27.5065 12.3914 27.5358 12.3914C27.5651 12.3914 27.642 12.4273 27.7079 12.4711C27.8434 12.5628 27.8617 12.6783 27.7665 12.8775C27.6786 13.0648 27.6456 13.2082 27.6054 13.6067C27.5724 13.9254 27.5394 14.029 27.3087 14.5549C26.9792 15.308 26.873 15.6188 26.873 15.822C26.873 16.061 26.7924 16.2005 26.6276 16.2443C26.5068 16.2762 26.4848 16.3001 26.4079 16.5113C26.3566 16.6547 26.2578 16.822 26.1442 16.9535C25.9538 17.1727 25.8879 17.3042 25.8147 17.6309C25.7451 17.9377 25.5913 18.1608 25.0786 18.7027C24.5403 19.2645 24.1338 19.5792 23.4856 19.9219C22.6727 20.3562 21.4386 20.8343 20.882 20.9419C20.4645 21.0216 19.4941 21.2925 19.1645 21.42C19.0254 21.4758 18.6701 21.5913 18.3772 21.679C18.0842 21.7627 17.6997 21.8862 17.5166 21.9499C17.3372 22.0177 17.0699 22.0894 16.9271 22.1133C16.7806 22.1332 16.4949 22.2129 16.2862 22.2846C16.0775 22.3603 15.7076 22.4599 15.4659 22.5117C14.8031 22.6472 14.4845 22.7349 14.133 22.8863C13.9609 22.962 13.7082 23.0536 13.5727 23.0855C13.2211 23.1731 12.9135 23.3405 12.5547 23.6313C12.3825 23.7708 12.1335 23.9541 11.998 24.0417C11.7637 24.1892 11.6318 24.3007 10.8811 24.982C10.7017 25.1454 10.449 25.3645 10.3172 25.4642C10.1634 25.5837 10.0279 25.7311 9.93635 25.8825C9.85944 26.01 9.62142 26.3128 9.40536 26.5559C8.90001 27.1296 8.70592 27.4324 8.46423 28.0221C8.35437 28.2891 8.17494 28.6716 8.06508 28.8708C7.89663 29.1816 7.86367 29.2732 7.84536 29.4884C7.81973 29.8191 7.77944 30.0223 7.66958 30.337C7.61832 30.4765 7.54508 30.7355 7.50113 30.9068C7.45353 31.0901 7.34001 31.365 7.23015 31.5762C7.12395 31.7714 6.99212 32.0224 6.93353 32.13C6.8786 32.2376 6.76142 32.397 6.67719 32.4886C6.5893 32.5763 6.44649 32.7755 6.35494 32.9229C6.21212 33.15 5.93381 33.5405 5.09156 34.696C5.02198 34.7916 4.89015 34.9191 4.7986 34.9828C4.54958 35.1502 4.08085 35.6801 3.83916 36.0626C3.59381 36.4491 3.45832 36.5925 3.21663 36.7081C2.96761 36.8276 2.85775 36.9232 2.83212 37.0507C2.80649 37.1902 2.6893 37.3097 2.35606 37.5408C2.14001 37.6922 2.08142 37.752 1.99353 37.9512C1.85437 38.25 1.53944 38.6166 1.33437 38.7242C1.20987 38.7839 1.16226 38.8397 1.1293 38.9433C1.10733 39.019 1.01944 39.1943 0.93888 39.3338C0.682542 39.7601 0.393247 40.4056 0.352965 40.6367C0.330993 40.7602 0.298035 40.8797 0.279725 40.9036C0.261416 40.9315 0.235782 41.047 0.224796 41.1626C0.21381 41.2821 0.155218 41.4853 0.0966268 41.6168C-0.0352042 41.9196 -0.0315422 42.075 0.103951 42.3858C0.1955 42.597 0.235782 42.6448 0.367613 42.7085C0.4555 42.7484 0.616627 42.8599 0.726486 42.9595C0.968176 43.1747 1.10367 43.2544 1.28677 43.2903C1.40761 43.3142 1.43325 43.3062 1.52846 43.1946C1.70423 42.9874 1.89465 43.0432 2.00818 43.3341C2.09973 43.5652 2.28282 44.386 2.3524 44.884C2.51353 46.0474 2.57578 46.406 2.69296 46.8961C2.87973 47.6611 2.91268 47.8882 2.97494 48.8285C3.00423 49.2907 3.04818 49.721 3.07015 49.7848C3.09212 49.8525 3.17268 49.984 3.24958 50.0836C3.32282 50.1832 3.42902 50.3426 3.48029 50.4422C3.53522 50.5418 3.65606 50.7052 3.75494 50.8088L3.93071 50.996L4.44705 50.8606C4.72902 50.7888 5.02198 50.6972 5.09522 50.6574C5.21973 50.5936 5.23071 50.5936 5.40282 50.6733C5.71775 50.8167 5.87888 50.8207 6.12789 50.6813C6.29635 50.5896 6.39522 50.5617 6.55635 50.5617C6.66987 50.5617 6.7724 50.5458 6.78339 50.5259C6.84564 50.4223 6.42451 50.0836 5.38818 49.4063C5.17212 49.2628 4.90846 49.0556 4.80592 48.9481C4.64846 48.7807 4.61184 48.709 4.56057 48.4899C4.49466 48.203 4.26395 46.1311 4.2017 45.2785L4.16142 44.7406L4.25663 44.5294C4.42142 44.1668 5.77635 42.6966 6.31099 42.3021C6.51606 42.1507 7.19719 41.7961 7.28142 41.7961C7.30339 41.7961 7.4755 41.6726 7.66958 41.5252C7.86001 41.3778 8.26649 41.1068 8.57409 40.9235C8.87804 40.7403 9.37973 40.4374 9.68733 40.2542C9.99494 40.0709 10.4563 39.8318 10.7127 39.7282C11.5586 39.3776 12.1921 39.0469 12.789 38.6325C12.9465 38.5249 13.2394 38.3695 13.4409 38.2859C13.884 38.1026 14.0927 37.9751 14.3307 37.732C14.6054 37.4571 14.7152 37.3735 14.8104 37.3735C14.9313 37.3735 14.9789 37.501 14.9825 37.8277C14.9825 38.3496 14.6237 39.266 13.9792 40.3896C13.851 40.6167 13.6642 40.9554 13.5617 41.1467C13.4445 41.3698 13.2907 41.5889 13.1332 41.7563C12.8183 42.087 12.7304 42.2981 12.7085 42.7563C12.6975 43.0273 12.7048 43.1269 12.7561 43.2345C12.7927 43.3102 13.1552 43.7365 13.558 44.1867C14.5211 45.2506 14.7628 45.6211 14.8287 46.1271C14.869 46.4339 14.9825 46.6849 15.2059 46.9718C15.4403 47.2627 15.5428 47.4699 15.6051 47.7567C15.6673 48.0635 15.8211 48.3504 15.9676 48.45C16.0994 48.5377 16.1397 48.5456 16.9673 48.6492C17.3189 48.6931 17.6851 48.7608 17.8096 48.8086C18.0549 48.9003 18.2014 48.8843 18.282 48.7608C18.3296 48.6851 18.3625 48.6811 18.5603 48.701C18.7617 48.7249 18.7873 48.721 18.8569 48.6333C18.9411 48.5297 19.0363 48.4779 19.2854 48.4102C19.3696 48.3863 19.4392 48.3464 19.4392 48.3185C19.4392 48.2189 18.824 47.6412 18.5603 47.4938C18.4797 47.4499 18.2307 47.3782 18.0037 47.3344C17.4617 47.2348 17.3555 47.1989 17.1724 47.0515C16.6963 46.677 15.8138 45.4259 15.5611 44.7724C15.4989 44.6051 15.3707 44.2943 15.2792 44.0792C15.0741 43.601 15.0521 43.4058 15.1363 42.8838C15.2609 42.1268 15.4366 41.7642 15.9603 41.1945C16.3045 40.816 16.6048 40.5928 17.7913 39.8238C18.8606 39.1345 19.04 38.9991 19.2378 38.7441C19.333 38.6245 19.4245 38.5289 19.4465 38.5289C19.5124 38.5289 20.0287 38.1863 20.2485 37.995C20.373 37.8914 20.5085 37.7241 20.578 37.5926C20.6476 37.4651 20.8087 37.2181 20.9369 37.0388C21.424 36.3694 21.7352 35.7319 21.8524 35.1621C21.9549 34.6442 22.1197 34.162 22.1856 34.174C22.2149 34.178 22.2845 34.1939 22.3394 34.2099C22.4237 34.2298 22.4676 34.2019 22.6434 34.0226C22.8521 33.8074 22.8997 33.8035 22.9254 33.9867C22.9327 34.0505 22.9766 34.1063 23.0425 34.1421C23.178 34.2099 23.5259 34.2178 23.5845 34.1541C23.6101 34.1262 23.6907 34.1063 23.764 34.1063C23.9104 34.1063 23.9617 34.0624 23.9983 33.8991C24.0276 33.7716 24.1411 33.6481 24.1997 33.6879C24.218 33.6999 24.262 33.7756 24.2913 33.8513C24.3499 34.0067 24.3938 34.0186 24.4671 33.9031C24.522 33.8234 24.5256 33.8234 24.6172 33.8911C24.6978 33.9469 24.7637 33.9549 24.9614 33.931C25.0969 33.919 25.2507 33.8951 25.302 33.8831C25.3752 33.8672 25.4265 33.8911 25.5363 34.0027C25.6609 34.1302 25.6938 34.1461 25.8769 34.1461C26.0197 34.1461 26.1699 34.1063 26.4042 34.0067C26.7997 33.8353 27.1696 33.7357 27.2904 33.7716C27.3417 33.7835 27.4076 33.8274 27.4406 33.8672C27.4918 33.927 27.4918 33.9549 27.4589 34.0266C27.4332 34.0744 27.4223 34.17 27.4332 34.2417C27.4589 34.437 27.664 34.9788 27.7958 35.198C27.858 35.3095 28.0082 35.5964 28.1217 35.8355C28.2389 36.0745 28.3744 36.3136 28.422 36.3734C28.5465 36.5128 28.898 37.2898 28.9932 37.6285C29.0372 37.7799 29.1031 38.1106 29.1434 38.3656C29.2459 39.0031 29.3082 39.1943 29.4363 39.266C29.5462 39.3298 29.9856 40.0031 29.9856 40.1107C29.9856 40.1466 30.0332 40.2701 30.0955 40.3856C30.1541 40.5012 30.2163 40.6685 30.2273 40.7602C30.242 40.8518 30.3189 41.0351 30.3994 41.1706C30.48 41.306 30.5679 41.4973 30.5972 41.5969C30.6228 41.6965 30.718 41.8758 30.8023 41.9953C31.0256 42.3101 31.1904 42.6169 31.4797 43.2584C31.7104 43.7724 31.769 43.9397 31.8862 44.4059C31.9082 44.4935 32.0144 44.7366 32.1279 44.9438C32.4099 45.4697 32.6369 45.9638 32.7102 46.2108C32.7871 46.4578 32.9189 46.5813 33.2228 46.7009C33.7648 46.9081 35.0538 47.0395 36.1927 47.0037C36.7932 46.9878 36.9178 46.9718 37.1009 46.8961C37.3132 46.8085 37.3169 46.8085 37.5403 46.8802C37.6978 46.928 37.8955 46.9519 38.1885 46.9519C38.6462 46.9559 38.8476 46.9041 38.9392 46.7646C39.0051 46.661 39.0087 46.5774 38.9501 46.5774C38.9245 46.5774 38.6792 46.3981 38.4082 46.1749C37.9504 45.8044 37.76 45.6849 36.9983 45.3024C36.7932 45.1948 36.6651 45.0872 36.3538 44.7485C35.7789 44.127 35.6617 43.8281 35.5885 42.8042C35.5445 42.2025 35.5006 41.9236 35.4054 41.5929C35.2625 41.1108 35.1747 40.3657 35.1124 39.0668C35.0575 37.9472 34.9916 37.2619 34.8011 35.8116C34.6107 34.3493 34.5411 33.0982 34.5741 31.7754C34.6217 29.9904 34.8194 29.4007 35.6837 28.4684C36.1671 27.9504 36.3648 27.6516 36.4344 27.3488C36.4563 27.2412 36.5332 27.046 36.5992 26.9145C36.687 26.7352 36.7456 26.528 36.8299 26.0857C36.8994 25.6953 36.969 25.4403 37.0313 25.3247C37.0899 25.2131 37.1338 25.0617 37.1485 24.8824C37.1668 24.6832 37.1961 24.5876 37.2656 24.496C37.3462 24.3924 37.3609 24.3206 37.3865 23.9541C37.4268 23.4202 37.5403 22.7588 37.6611 22.3842C37.7673 22.0376 37.8186 21.4081 37.8223 20.3602C37.8223 19.9777 37.8406 19.2924 37.8625 18.8421C37.9028 18.0652 37.8992 18.0014 37.8223 17.5751C37.7563 17.2006 37.749 17.0571 37.7673 16.6985C37.793 16.3081 37.7856 16.2563 37.7161 16.1049C37.6648 15.9973 37.6245 15.802 37.5989 15.5311C37.5513 15.0171 37.4378 14.4434 37.3206 14.1047C37.24 13.8696 37.2254 13.7541 37.1961 12.9293C37.1594 11.9571 37.1521 11.8934 36.9983 11.1244C36.9031 10.6303 36.8445 10.4431 36.5992 9.7976C36.3611 9.18002 36.3575 8.78556 36.5735 7.79744C36.8189 6.68182 37.1155 5.68174 37.4121 4.96056C37.511 4.71752 37.6135 4.45057 37.6392 4.36689C37.7014 4.15971 37.6648 3.68557 37.5732 3.45049C37.489 3.24728 37.2986 3.09189 37.1814 3.13174C37.0496 3.17955 36.8225 3.37478 36.3831 3.81705C36.1487 4.05611 35.9071 4.27525 35.8448 4.30314C35.5299 4.44658 35.431 4.21947 35.2772 2.97635C35.2076 2.40658 35.0868 1.97627 34.9037 1.6376C34.7242 1.30689 34.3031 0.816814 33.9259 0.510017C33.622 0.262985 33.1752 1.90735e-05 33.0507 1.90735e-05C33.0104 1.90735e-05 32.9262 0.0597839 32.8603 0.131504Z" fill="#9FAEBC"/>
</svg>