<svg width="22" height="22" viewBox="0 0 22 22" fill="none" xmlns="http://www.w3.org/2000/svg">
<path fill-rule="evenodd" clip-rule="evenodd" d="M11.0002 0.833313C11.5524 0.833313 12.0002 1.28103 12.0002 1.83331V5.25203C14.4205 5.67015 16.33 7.57969 16.7481 9.99998H20.1668C20.7191 9.99998 21.1668 10.4477 21.1668 11C21.1668 11.5523 20.7191 12 20.1668 12H16.7481C16.33 14.4203 14.4205 16.3298 12.0002 16.7479V20.1667C12.0002 20.719 11.5524 21.1667 11.0002 21.1667C10.4479 21.1667 10.0002 20.719 10.0002 20.1667V16.7479C7.57987 16.3298 5.67033 14.4203 5.25221 12H1.8335C1.28121 12 0.833496 11.5523 0.833496 11C0.833496 10.4477 1.28121 9.99998 1.8335 9.99998H5.25221C5.67033 7.57969 7.57987 5.67015 10.0002 5.25203V1.83331C10.0002 1.28103 10.4479 0.833313 11.0002 0.833313ZM11.0002 14.8333C13.1173 14.8333 14.8335 13.1171 14.8335 11C14.8335 8.88289 13.1173 7.16665 11.0002 7.16665C8.88307 7.16665 7.16683 8.88289 7.16683 11C7.16683 13.1171 8.88307 14.8333 11.0002 14.8333Z" fill="black"/>
</svg>